<svg height="512" viewBox="0 0 512 512" width="512" xmlns="http://www.w3.org/2000/svg"><g id="flat"><path d="m40 256h432v128h-432z" fill="#ffaf00"/><path d="m40 256h128v128h-128z" fill="#f55441"/><path d="m472 168v96h-432v-96a16 16 0 0 1 16-16h400a16 16 0 0 1 16 16z" fill="#19af19"/><path d="m168 152v112h-128v-96a16 16 0 0 1 16-16z" fill="#e6e6e6"/><path d="m40 255.113v8.887h128v-112h-13.692a265.107 265.107 0 0 1 -114.308 103.113z" fill="#ccc"/><path d="m40 367.113v8.887h128v-112h-13.692a265.107 265.107 0 0 1 -114.308 103.113z" fill="#d3463c"/><rect fill="#6ad3d3" height="96" rx="48" width="464" x="24" y="24"/><path d="m440 24h-90.714a265.081 265.081 0 0 1 -111.186 96h201.9a48 48 0 0 0 48-48 48 48 0 0 0 -48-48z" fill="#4eb7b4"/><path d="m472 376v96a16 16 0 0 1 -16 16h-400a16 16 0 0 1 -16-16v-96z" fill="#19af19"/><path d="m168 376v112h-112a16 16 0 0 1 -16-16v-96z" fill="#e6e6e6"/><path d="m154.308 376a265.116 265.116 0 0 1 -112.941 102.456 16 16 0 0 0 14.633 9.544h112v-112z" fill="#ccc"/><g fill="#315a70"><path d="m415.999 57.373h16.001v45.255h-16.001z" transform="matrix(.707 -.707 .707 .707 67.618 323.245)"/><path d="m64 48h16v48h-16z"/><path d="m192 176h152v16h-152z"/><path d="m192 200h256v16h-256z"/><path d="m192 224h256v16h-256z"/><path d="m192 288h152v16h-152z"/><path d="m192 312h256v16h-256z"/><path d="m192 336h256v16h-256z"/><path d="m192 400h152v16h-152z"/><path d="m192 424h256v16h-256z"/><path d="m192 448h256v16h-256z"/><path d="m132 304v-16h-56v16h8v32h-8v16h56v-16h-8v-32zm-24 32h-8v-32h8z"/></g><path d="m132 336h-8v-31.17q-7.65 8.472-16 16.267v14.903h-8v-7.747a265.105 265.105 0 0 1 -24 18.358v5.389h56z" fill="#203b47"/><path d="m132 295.56q-3.536 4.3-7.249 8.44h7.249z" fill="#203b47"/><path d="m64 416h8v32h-8v16h80v-16h-8v-32h8v-16h-80zm24 0h8v32h-8zm32 32h-8v-32h8z" fill="#315a70"/><path d="m144 464v-16h-8v-32h8v-16h-6.007a265.149 265.149 0 0 1 -17.993 21.163v26.837h-8v-18.717q-7.7 7.485-16 14.332v4.385h-5.441a264.711 264.711 0 0 1 -22.842 16z" fill="#203b47"/><path d="m120 224h-8v-32h8v-16h-32v16h8v32h-8v16h32z" fill="#315a70"/><path d="m120 224h-8v-18.7q-7.7 7.483-16 14.326v4.374h-5.438c-.849.664-1.7 1.319-2.562 1.973v14.027h32z" fill="#203b47"/><circle cx="408" cy="64" fill="#e6e6e6" r="16"/></g></svg>