<svg id="Layer_3" enable-background="new 0 0 64 64" height="512" viewBox="0 0 64 64" width="512" xmlns="http://www.w3.org/2000/svg"><g><path d="m5 20h14v22h-14z" fill="#78b75b"/><path d="m25 2h14v40h-14z" fill="#78b75b"/><path d="m2 42h60v6h-60z" fill="#a0a8b2"/><path d="m57.382 54h-.146c-.156 0-.31-.01-.461-.029-1.323-.17-2.319-1.201-2.648-2.461-.648.305-1.363.49-2.127.49s-1.479-.185-2.127-.491c-.329 1.26-1.325 2.292-2.648 2.461-.152.02-.306.03-.461.03h-.146c-1.998 0-3.618 1.62-3.618 3.618v4.382h18v-4.382c0-1.998-1.62-3.618-3.618-3.618z" fill="#faddb0"/><path d="m57.382 54h-.146c-.156 0-.31-.01-.461-.029-.209-.027-.41-.077-.602-.144l-.759.759c-.905.905-2.133 1.414-3.414 1.414s-2.509-.509-3.414-1.414l-.759-.759c-.192.067-.392.117-.602.144-.152.019-.306.029-.461.029h-.146c-1.998 0-3.618 1.62-3.618 3.618v4.382h18v-4.382c0-1.998-1.62-3.618-3.618-3.618z" fill="#4472b0"/><path d="m57.236 54c-.156 0-.31-.01-.461-.029-.209-.027-.41-.077-.602-.144l-.759.759c-.905.905-2.133 1.414-3.414 1.414s-2.509-.509-3.414-1.414l-.759-.759c-.192.067-.392.117-.602.144-.152.019-.306.029-.461.029h-.146c-1.998 0-3.618 1.62-3.618 3.618v3.339c.333.015.662.043 1 .043 6.145 0 11.565-2.656 14.813-6.703-.439-.19-.922-.297-1.431-.297z" fill="#698ec0"/><path d="m32 52c-2.761 0-5-2.239-5-5v-2c0-2.761 2.239-5 5-5 2.761 0 5 2.239 5 5v2c0 2.761-2.239 5-5 5z" fill="#faddb0"/><path d="m37.382 54h-.146c-.156 0-.31-.01-.461-.029-1.323-.17-2.319-1.201-2.648-2.461-.648.305-1.363.49-2.127.49s-1.479-.185-2.127-.491c-.329 1.26-1.325 2.292-2.648 2.461-.152.02-.306.03-.461.03h-.146c-1.998 0-3.618 1.62-3.618 3.618v4.382h18v-4.382c0-1.998-1.62-3.618-3.618-3.618z" fill="#faddb0"/><path d="m37.382 54h-.146c-.156 0-.31-.01-.461-.029-.209-.027-.41-.077-.602-.144l-.759.759c-.905.905-2.133 1.414-3.414 1.414s-2.509-.509-3.414-1.414l-.759-.759c-.192.067-.392.117-.602.144-.152.019-.306.029-.461.029h-.146c-1.998 0-3.618 1.62-3.618 3.618v4.382h18v-4.382c0-1.998-1.62-3.618-3.618-3.618z" fill="#4472b0"/><path d="m37.236 54c-.156 0-.31-.01-.461-.029-.209-.027-.41-.077-.602-.144l-.759.759c-.905.905-2.133 1.414-3.414 1.414s-2.509-.509-3.414-1.414l-.759-.759c-.192.067-.392.117-.602.144-.152.019-.306.029-.461.029h-.146c-1.998 0-3.618 1.62-3.618 3.618v3.339c.333.015.662.043 1 .043 6.145 0 11.565-2.656 14.813-6.703-.439-.19-.922-.297-1.431-.297z" fill="#698ec0"/><path d="m12 52c-2.761 0-5-2.239-5-5v-2c0-2.761 2.239-5 5-5 2.761 0 5 2.239 5 5v2c0 2.761-2.239 5-5 5z" fill="#faddb0"/><path d="m17.382 54h-.146c-.156 0-.31-.01-.461-.029-1.323-.17-2.319-1.201-2.648-2.461-.648.305-1.363.49-2.127.49s-1.479-.185-2.127-.491c-.329 1.26-1.325 2.292-2.648 2.461-.152.02-.306.03-.461.03h-.146c-1.998 0-3.618 1.62-3.618 3.618v4.382h18v-4.382c0-1.998-1.62-3.618-3.618-3.618z" fill="#faddb0"/><path d="m17.382 54h-.146c-.156 0-.31-.01-.461-.029-.209-.027-.41-.077-.602-.144l-.759.759c-.905.905-2.133 1.414-3.414 1.414s-2.509-.509-3.414-1.414l-.759-.759c-.192.067-.392.117-.602.144-.152.019-.306.029-.461.029h-.146c-1.998 0-3.618 1.62-3.618 3.618v4.382h18v-4.382c0-1.998-1.62-3.618-3.618-3.618z" fill="#4472b0"/><path d="m17.236 54c-.156 0-.31-.01-.461-.029-.209-.027-.41-.077-.602-.144l-.759.759c-.905.905-2.133 1.414-3.414 1.414s-2.509-.509-3.414-1.414l-.759-.759c-.192.067-.392.117-.602.144-.152.019-.306.029-.461.029h-.146c-1.998 0-3.618 1.62-3.618 3.618v3.339c.333.015.662.043 1 .043 6.145 0 11.565-2.656 14.813-6.703-.439-.19-.922-.297-1.431-.297z" fill="#698ec0"/><path d="m45 12h14v30h-14z" fill="#78b75b"/><g><path d="m36 59h2v3h-2z" fill="#335684"/></g><g><path d="m26 59h2v3h-2z" fill="#335684"/></g><g><path d="m16 59h2v3h-2z" fill="#335684"/></g><g><path d="m6 59h2v3h-2z" fill="#335684"/></g><g><path d="m56 59h2v3h-2z" fill="#335684"/></g><g><path d="m46 59h2v3h-2z" fill="#335684"/></g><path d="m52 52c-2.761 0-5-2.239-5-5v-2c0-2.761 2.239-5 5-5 2.761 0 5 2.239 5 5v2c0 2.761-2.239 5-5 5z" fill="#faddb0"/><g fill="#ebf7fe"><path d="m33 6c0-.404-.243-.769-.617-.924s-.804-.069-1.09.217l-3 3 1.414 1.414 1.293-1.293v7.586h-2v2h6v-2h-2z"/><path d="m55 21.415c.645-.645 1-1.502 1-2.415 0-2.206-1.794-4-4-4s-4 1.794-4 4h2c0-1.103.897-2 2-2s2 .897 2 2c0 .378-.146.733-.414 1l-5.293 5.293c-.286.286-.372.716-.217 1.09.154.373.52.617.924.617h7v-2h-4.586z"/><path d="m13.317 27.097 2.39-2.39c.286-.286.372-.716.217-1.09-.154-.373-.52-.617-.924-.617h-7v2h4.586l-2.293 2.293c-.286.286-.372.716-.217 1.09.154.373.52.617.924.617h1.5c.827 0 1.5.673 1.5 1.5s-.673 1.5-1.5 1.5h-1.5c-.552 0-1-.449-1-1h-2c0 1.654 1.346 3 3 3h1.5c1.93 0 3.5-1.57 3.5-3.5 0-1.648-1.146-3.034-2.683-3.403z"/></g></g></svg>