<?xml version="1.0" encoding="iso-8859-1"?>
<!-- Generator: Adobe Illustrator 19.0.0, SVG Export Plug-In . SVG Version: 6.00 Build 0)  -->
<svg version="1.1" id="Capa_1" xmlns="http://www.w3.org/2000/svg" xmlns:xlink="http://www.w3.org/1999/xlink" x="0px" y="0px"
	 viewBox="0 0 464 464" style="enable-background:new 0 0 464 464;" xml:space="preserve">
<path style="fill:#E6E6E6;" d="M48,464H24c-13.255,0-24-10.745-24-24l0,0V88c0-13.255,10.745-24,24-24h384c13.255,0,24,10.745,24,24
	v352c0,13.255-10.745,24-24,24l0,0H48z"/>
<path style="fill:#0071BC;" d="M24,64h384c13.255,0,24,10.745,24,24v40l0,0H0l0,0V88C0,74.745,10.745,64,24,64z"/>
<path style="fill:#DA4836;" d="M24,88h16v16H24V88z"/>
<path style="fill:#F8CF26;" d="M56,88h16v16H56V88z"/>
<path style="fill:#3DBF50;" d="M88,88h16v16H88V88z"/>
<path style="fill:#F15A24;" d="M320,152v120l40-32l40,32V152H320z"/>
<g>
	<path style="fill:#29ABE2;" d="M56,328h40v96H56V328z"/>
	<path style="fill:#29ABE2;" d="M136,288h40v136h-40V288z"/>
	<path style="fill:#29ABE2;" d="M216,248h40v176h-40V248z"/>
</g>
<path style="fill:#0071BC;" d="M32,416h248v16H32V416z"/>
<g>
	<path style="fill:#999999;" d="M64,160h16v16H64V160z"/>
	<path style="fill:#999999;" d="M96,160h160v16H96V160z"/>
	<path style="fill:#999999;" d="M32,192h224v16H32V192z"/>
	<path style="fill:#999999;" d="M32,224h152v16H32V224z"/>
	<path style="fill:#999999;" d="M304,320h16v16h-16V320z"/>
	<path style="fill:#999999;" d="M336,320h64v16h-64V320z"/>
	<path style="fill:#999999;" d="M304,352h96v16h-96V352z"/>
	<path style="fill:#999999;" d="M304,384h96v16h-96V384z"/>
	<path style="fill:#999999;" d="M304,416h96v16h-96V416z"/>
</g>
<path style="fill:#FBB03B;" d="M433.536,30.464l-7,45.968L464,104l-37.464,27.568l7,45.968l-45.968-7L360,208l-27.568-37.464
	l-45.968,7l7-45.968L256,104l37.464-27.568l-7-45.968l45.968,7L360,0l27.568,37.464L433.536,30.464z"/>
<circle style="fill:#F15A24;" cx="360" cy="104" r="40"/>
<path style="fill:#FBB03B;" d="M352,96h16v16h-16V96z"/>
<g>
</g>
<g>
</g>
<g>
</g>
<g>
</g>
<g>
</g>
<g>
</g>
<g>
</g>
<g>
</g>
<g>
</g>
<g>
</g>
<g>
</g>
<g>
</g>
<g>
</g>
<g>
</g>
<g>
</g>
</svg>
