<?xml version="1.0" encoding="iso-8859-1"?>
<!-- Generator: Adobe Illustrator 19.0.0, SVG Export Plug-In . SVG Version: 6.00 Build 0)  -->
<svg version="1.1" id="Layer_1" xmlns="http://www.w3.org/2000/svg" xmlns:xlink="http://www.w3.org/1999/xlink" x="0px" y="0px"
	 viewBox="0 0 491.53 491.53" style="enable-background:new 0 0 491.53 491.53;" xml:space="preserve">
<rect x="12.393" y="104.216" transform="matrix(-0.706 0.7083 -0.7083 -0.706 480.4616 198.8624)" style="fill:#3EA69B;" width="373.114" height="189.901"/>
<path style="fill:#44C4A1;" d="M123.595,368.301l-93.526-93.223c5.989-6.008,5.973-15.734-0.035-21.722L252.595,30.072
	c6.008,5.989,15.734,5.973,21.722-0.035l93.526,93.223c-5.989,6.008-5.973,15.734,0.035,21.722L145.317,368.266
	C139.309,362.277,129.584,362.293,123.595,368.301z"/>
<g>
	
		<ellipse transform="matrix(-0.7083 -0.706 0.706 -0.7083 199.2579 480.6856)" style="fill:#3EA69B;" cx="198.954" cy="199.17" rx="64.778" ry="51.174"/>
	<ellipse style="fill:#3EA69B;" cx="301.279" cy="96.499" rx="11.581" ry="11.581"/>
	<ellipse style="fill:#3EA69B;" cx="96.63" cy="301.825" rx="11.581" ry="11.581"/>
</g>
<path style="fill:#44C4A1;" d="M233.953,237.957l-6.507-6.486c-8.951,7.319-19.479,11.403-31.574,12.248l-1.269-14.237
	c9.313-0.667,17.016-3.229,23.129-7.693l-17.295-17.239c-8.299,5.12-15.313,7.934-21.038,8.447
	c-5.725,0.513-11.157-1.793-16.297-6.916c-5.14-5.123-7.558-11.106-7.243-17.965c0.318-6.856,3.202-13.31,8.653-19.374l-4.458-4.444
	l5.684-5.702l4.545,4.53c6.994-6.059,15.382-10.02,25.172-11.876l2.424,13.971c-6.705,1.141-12.658,3.667-17.878,7.591
	l16.758,16.704l0.268-0.268c8.419-5.232,15.592-8.09,21.519-8.574c5.938-0.488,11.505,1.865,16.703,7.046
	c5.202,5.185,7.602,11.25,7.193,18.19c-0.402,6.947-3.473,13.59-9.22,19.951l6.417,6.396L233.953,237.957z M170.144,186.893
	c-0.176,2.847,0.736,5.261,2.728,7.246c1.991,1.985,4.159,2.959,6.502,2.923c2.339-0.026,5.709-1.179,10.098-3.442l-15.423-15.373
	C171.619,181.162,170.317,184.043,170.144,186.893z M227.939,207.087c0.292-3.021-0.599-5.572-2.681-7.648
	c-2.078-2.072-4.38-3.064-6.9-2.973c-2.528,0.098-6.1,1.397-10.72,3.892l16.044,15.992
	C226.228,213.207,227.643,210.119,227.939,207.087z"/>
<rect x="106.103" y="118.274" transform="matrix(-0.7051 0.7091 -0.7091 -0.7051 650.2133 156.0251)" style="fill:#3EA69B;" width="373.115" height="189.901"/>
<path style="fill:#44C4A1;" d="M217.503,382.439l-93.643-93.105c5.981-6.016,5.953-15.741-0.063-21.722L346.076,44.048
	c6.016,5.981,15.741,5.953,21.722-0.063l93.643,93.105c-5.981,6.016-5.953,15.741,0.063,21.722L239.225,382.377
	C233.21,376.396,223.484,376.424,217.503,382.439z"/>
<g>
	
		<ellipse transform="matrix(-0.7091 -0.7051 0.7051 -0.7091 349.867 570.7431)" style="fill:#3EA69B;" cx="292.657" cy="213.206" rx="64.778" ry="51.174"/>
	<ellipse style="fill:#3EA69B;" cx="394.854" cy="110.439" rx="11.581" ry="11.581"/>
	<ellipse style="fill:#3EA69B;" cx="190.461" cy="315.989" rx="11.581" ry="11.581"/>
</g>
<path style="fill:#44C4A1;" d="M327.697,251.957l-6.516-6.478c-8.942,7.33-19.465,11.427-31.558,12.288l-1.287-14.236
	c9.312-0.679,17.011-3.25,23.119-7.722l-17.317-17.217c-8.293,5.13-15.303,7.953-21.027,8.473s-11.159-1.779-16.306-6.895
	c-5.146-5.117-7.572-11.096-7.266-17.956c0.31-6.856,3.185-13.314,8.628-19.385l-4.464-4.438l5.676-5.709l4.551,4.525
	c6.986-6.068,15.37-10.04,25.157-11.907l2.441,13.968c-6.704,1.149-12.654,3.683-17.868,7.613l16.779,16.683l0.267-0.269
	c8.412-5.243,15.581-8.11,21.508-8.601c5.938-0.495,11.507,1.85,16.712,7.025c5.208,5.178,7.616,11.241,7.216,18.181
	c-0.393,6.947-3.456,13.594-9.195,19.963l6.425,6.388L327.697,251.957z M263.823,200.974c-0.173,2.847,0.743,5.26,2.737,7.242
	c1.994,1.982,4.162,2.954,6.505,2.915c2.339-0.028,5.708-1.186,10.094-3.455l-15.443-15.354
	C265.291,195.24,263.992,198.123,263.823,200.974z M321.643,221.094c0.288-3.021-0.606-5.572-2.691-7.644
	c-2.081-2.069-4.384-3.058-6.904-2.964c-2.527,0.101-6.098,1.405-10.715,3.906l16.064,15.971
	C319.941,227.216,321.352,224.126,321.643,221.094z"/>
<path style="fill:#EBF0F3;" d="M360.566,243.719H15.062c-8.317,0-15.06,6.732-15.06,15.038v217.73
	c0,8.305,6.743,15.038,15.06,15.038h345.504c8.318,0,15.06-6.732,15.06-15.038v-217.73
	C375.625,250.452,368.884,243.719,360.566,243.719z"/>
<path style="fill:#FCD462;" d="M79.805,273.983H30.318c-2.723,0-4.929,2.204-4.929,4.922v49.416c0,2.719,2.206,4.923,4.929,4.923
	h49.487c2.721,0,4.929-2.204,4.929-4.923v-49.416C84.734,276.187,82.527,273.983,79.805,273.983z"/>
<ellipse style="fill:#E56353;" cx="316.772" cy="295.019" rx="30.085" ry="30.044"/>
<ellipse style="fill:#27A2DB;" cx="277.557" cy="295.019" rx="30.085" ry="30.044"/>
<g>
	<rect x="25.387" y="367.365" style="fill:#64798A;" width="97.843" height="11.955"/>
	<rect x="25.387" y="446.059" style="fill:#64798A;" width="44.022" height="11.955"/>
	<rect x="104.793" y="446.11" style="fill:#64798A;" width="44.022" height="11.955"/>
	<rect x="184.199" y="446.162" style="fill:#64798A;" width="44.022" height="11.955"/>
	<rect x="263.58" y="446.162" style="fill:#64798A;" width="44.022" height="11.955"/>
	<rect x="25.387" y="410.27" style="fill:#64798A;" width="146.98" height="11.955"/>
</g>
<g>
</g>
<g>
</g>
<g>
</g>
<g>
</g>
<g>
</g>
<g>
</g>
<g>
</g>
<g>
</g>
<g>
</g>
<g>
</g>
<g>
</g>
<g>
</g>
<g>
</g>
<g>
</g>
<g>
</g>
</svg>
