<?xml version="1.0" encoding="iso-8859-1"?>
<!-- Generator: Adobe Illustrator 19.0.0, SVG Export Plug-In . SVG Version: 6.00 Build 0)  -->
<svg version="1.1" id="Layer_1" xmlns="http://www.w3.org/2000/svg" xmlns:xlink="http://www.w3.org/1999/xlink" x="0px" y="0px"
	 viewBox="0 0 491.52 491.52" style="enable-background:new 0 0 491.52 491.52;" xml:space="preserve">
<rect y="104.474" style="fill:#44C4A1;" width="491.52" height="282.573"/>
<g>
	<path style="fill:#31978C;" d="M17.877,121.774v247.961H473.65V121.774H17.877z M455.777,326.482
		c-14.807,0-26.81,11.619-26.81,25.951H62.561c0-14.333-12.004-25.951-26.81-25.951V165.027c14.806,0,26.81-11.62,26.81-25.951
		h366.406c0,14.332,12.003,25.951,26.81,25.951V326.482z"/>
	<ellipse style="fill:#31978C;" cx="245.76" cy="245.755" rx="71.782" ry="87.552"/>
	<ellipse style="fill:#31978C;" cx="403.046" cy="245.755" rx="18.703" ry="18.104"/>
	<ellipse style="fill:#31978C;" cx="88.494" cy="245.755" rx="18.703" ry="18.104"/>
</g>
<path style="fill:#44C4A1;" d="M242.784,305.338v-10.494c-12.391-1.345-23.513-6.562-33.356-15.675l9.897-12.505
	c7.592,6.996,15.403,11.172,23.458,12.505v-27.888c-10.217-2.585-17.698-5.977-22.443-10.2c-4.745-4.211-7.116-10.469-7.116-18.764
	c0-8.282,2.725-15.066,8.198-20.33c5.473-5.276,12.589-8.154,21.362-8.634v-7.182h8.672v7.335
	c9.942,0.76,19.343,4.363,28.202,10.773l-8.816,13.231c-5.969-4.504-12.424-7.288-19.386-8.341v27.022h0.408
	c10.394,2.584,18.029,6.094,22.907,10.493c4.887,4.41,7.326,10.809,7.326,19.196c0,8.387-2.803,15.208-8.408,20.483
	c-5.605,5.265-13.009,8.142-22.234,8.621v10.353H242.784z M233.218,212.55c-2.307,2.152-3.454,4.843-3.454,8.048
	c0,3.217,0.904,5.744,2.714,7.616c1.799,1.871,5.241,3.673,10.306,5.392v-24.87C238.712,209.122,235.524,210.398,233.218,212.55z
	 M261.762,275.579c2.526-2.199,3.795-4.984,3.795-8.341c0-3.346-0.993-6.013-2.979-7.979c-1.997-1.953-5.704-3.802-11.123-5.533
	v25.875C255.793,279.123,259.224,277.789,261.762,275.579z"/>
<g>
</g>
<g>
</g>
<g>
</g>
<g>
</g>
<g>
</g>
<g>
</g>
<g>
</g>
<g>
</g>
<g>
</g>
<g>
</g>
<g>
</g>
<g>
</g>
<g>
</g>
<g>
</g>
<g>
</g>
</svg>
